<svg width="71" height="46" viewBox="0 0 71 46" fill="none" xmlns="http://www.w3.org/2000/svg">
<g clip-path="url(#clip0_17869_4093)">
<path d="M3.29546 22.5353C2.7991 22.5353 2.39672 22.1392 2.39672 21.6507V10.2598C2.39672 8.76359 2.84656 7.5727 3.74624 6.68715C4.66142 5.78634 5.96439 5.33594 7.65516 5.33594C8.19807 5.33594 8.73322 5.38938 9.26066 5.49626C9.50089 5.54494 9.72342 5.60471 9.92824 5.67558C10.3285 5.81407 10.4864 6.25902 10.346 6.65316L9.71848 8.4141C9.60173 8.74184 9.20602 8.88363 8.86508 8.79413C8.63239 8.71779 8.39972 8.67962 8.16705 8.67962C7.7017 8.67962 7.33717 8.81703 7.07348 9.09186C6.82529 9.35141 6.7012 9.75603 6.7012 10.3056V11.1988L6.81753 13.0081V21.6507C6.81753 22.1392 6.41516 22.5353 5.9188 22.5353H3.29546ZM1.45733 13.8325C0.960969 13.8325 0.558594 13.4365 0.558594 12.9479V11.4651C0.558594 10.9765 0.960969 10.5805 1.45733 10.5805H8.80397C9.3003 10.5805 9.70266 10.9765 9.70266 11.4651V12.9479C9.70266 13.4365 9.3003 13.8325 8.80396 13.8325H1.45733Z" fill="#08921E"/>
<path d="M16.5963 22.7391C15.2159 22.7391 13.9905 22.4643 12.9202 21.9147C11.8498 21.3651 11.0044 20.6092 10.3839 19.6474C9.77899 18.6703 9.47656 17.5556 9.47656 16.3037C9.47656 15.0517 9.77899 13.9448 10.3839 12.9829C11.0044 12.021 11.8498 11.2729 12.9202 10.7385C13.9905 10.1889 15.2159 9.91406 16.5963 9.91406C17.9769 9.91406 19.2023 10.1889 20.2726 10.7385C21.3585 11.2729 22.2038 12.021 22.8087 12.9829C23.4138 13.9448 23.7162 15.0517 23.7162 16.3037C23.7162 17.5556 23.4138 18.6703 22.8087 19.6474C22.2038 20.6092 21.3585 21.3651 20.2726 21.9147C19.2023 22.4643 17.9769 22.7391 16.5963 22.7391ZM16.5963 19.2809C17.1083 19.2809 17.5581 19.1664 17.9459 18.9374C18.3492 18.7084 18.6672 18.3725 18.8999 17.9297C19.1326 17.4717 19.2489 16.9297 19.2489 16.3037C19.2489 15.6777 19.1326 15.151 18.8999 14.7235C18.6672 14.2807 18.3492 13.9448 17.9459 13.7158C17.5581 13.4868 17.1083 13.3723 16.5963 13.3723C16.1 13.3723 15.6501 13.4868 15.2469 13.7158C14.8591 13.9448 14.5411 14.2807 14.2929 14.7235C14.0602 15.151 13.9439 15.6777 13.9439 16.3037C13.9439 16.9297 14.0602 17.4717 14.2929 17.9297C14.5411 18.3725 14.8591 18.7084 15.2469 18.9374C15.6501 19.1664 16.1 19.2809 16.5963 19.2809Z" fill="#08921E"/>
<path d="M31.1627 22.7391C29.7822 22.7391 28.5568 22.4643 27.4866 21.9147C26.4163 21.3651 25.5708 20.6092 24.9503 19.6474C24.3454 18.6703 24.043 17.5556 24.043 16.3037C24.043 15.0517 24.3454 13.9448 24.9503 12.9829C25.5708 12.021 26.4163 11.2729 27.4866 10.7385C28.5568 10.1889 29.7822 9.91406 31.1627 9.91406C32.5433 9.91406 33.7687 10.1889 34.839 10.7385C35.9249 11.2729 36.7702 12.021 37.3751 12.9829C37.9801 13.9448 38.2826 15.0517 38.2826 16.3037C38.2826 17.5556 37.9801 18.6703 37.3751 19.6474C36.7702 20.6092 35.9249 21.3651 34.839 21.9147C33.7687 22.4643 32.5433 22.7391 31.1627 22.7391ZM31.1627 19.2809C31.6747 19.2809 32.1245 19.1664 32.5123 18.9374C32.9155 18.7084 33.2336 18.3725 33.4663 17.9297C33.6989 17.4717 33.8153 16.9297 33.8153 16.3037C33.8153 15.6777 33.6989 15.151 33.4663 14.7235C33.2336 14.2807 32.9155 13.9448 32.5123 13.7158C32.1245 13.4868 31.6747 13.3723 31.1627 13.3723C30.6664 13.3723 30.2166 13.4868 29.8133 13.7158C29.4255 13.9448 29.1075 14.2807 28.8593 14.7235C28.6266 15.151 28.5103 15.6777 28.5103 16.3037C28.5103 16.9297 28.6266 17.4717 28.8593 17.9297C29.1075 18.3725 29.4255 18.7084 29.8133 18.9374C30.2166 19.1664 30.6664 19.2809 31.1627 19.2809Z" fill="#08921E"/>
<path d="M44.8921 22.7423C43.7442 22.7423 42.6972 22.4828 41.751 21.9637C40.8203 21.4293 40.0758 20.6888 39.5173 19.7421C38.9589 18.7803 38.6797 17.6352 38.6797 16.3069C38.6797 14.9939 38.9589 13.864 39.5173 12.9174C40.0758 11.9555 40.8203 11.215 41.751 10.6959C42.6972 10.1768 43.7442 9.91724 44.8921 9.91724C45.9779 9.91724 46.8931 10.1463 47.6376 10.6043C48.3977 11.0624 48.9716 11.7647 49.3594 12.7113C49.7472 13.6579 49.9412 14.8564 49.9412 16.3069C49.9412 17.7878 49.755 19.0016 49.3827 19.9482C49.0105 20.8949 48.4521 21.5973 47.7075 22.0552C46.963 22.5133 46.0245 22.7423 44.8921 22.7423ZM45.8228 19.2841C46.3192 19.2841 46.7613 19.1696 47.1491 18.9406C47.5524 18.7116 47.8703 18.3757 48.103 17.9329C48.3357 17.4749 48.4521 16.9329 48.4521 16.3069C48.4521 15.6809 48.3357 15.1542 48.103 14.7266C47.8703 14.2839 47.5524 13.948 47.1491 13.719C46.7613 13.4899 46.3192 13.3755 45.8228 13.3755C45.3109 13.3755 44.8534 13.4899 44.45 13.719C44.0622 13.948 43.7521 14.2839 43.5194 14.7266C43.2867 15.1542 43.1703 15.6809 43.1703 16.3069C43.1703 16.9329 43.2867 17.4749 43.5194 17.9329C43.7521 18.3757 44.0622 18.7116 44.45 18.9406C44.8534 19.1696 45.3109 19.2841 45.8228 19.2841ZM49.4904 22.5362C48.994 22.5362 48.5916 22.1402 48.5916 21.6516V20.4063L48.6149 16.3069L48.3822 12.2074V6.42758C48.3822 5.93903 48.7846 5.54297 49.281 5.54297H51.9043C52.4007 5.54297 52.803 5.93903 52.803 6.42758V21.6516C52.803 22.1402 52.4007 22.5362 51.9043 22.5362H49.4904Z" fill="#08921E"/>
<path d="M9.8159 41.2996C8.79241 41.2996 7.93718 41.0926 7.25018 40.6786C6.57721 40.2646 6.07248 39.6298 5.736 38.7742C5.39951 37.9186 5.23127 36.8215 5.23127 35.4829C5.23127 34.1719 5.40652 33.0886 5.75703 32.233C6.12155 31.3774 6.64731 30.7426 7.3343 30.3286C8.0213 29.9146 8.84849 29.7076 9.8159 29.7076C10.8534 29.7076 11.7928 29.9422 12.634 30.4114C13.4892 30.8806 14.1622 31.5499 14.6529 32.4193C15.1576 33.2749 15.41 34.2961 15.41 35.4829C15.41 36.6835 15.1576 37.7185 14.6529 38.5879C14.1622 39.4435 13.4892 40.1128 12.634 40.5958C11.7928 41.065 10.8534 41.2996 9.8159 41.2996ZM3.54327 41.1133C3.04691 41.1133 2.64453 40.7173 2.64453 40.2287V26.6385C2.64453 26.1499 3.04691 25.7539 3.54327 25.7539H5.74157C6.23793 25.7539 6.6403 26.1499 6.6403 26.6385V31.7776L6.43 35.4829L6.45103 39.1882V40.2287C6.45103 40.7173 6.04866 41.1133 5.5523 41.1133H3.54327ZM8.97467 38.1739C9.42333 38.1739 9.82291 38.0704 10.1734 37.8634C10.5379 37.6564 10.8254 37.3528 11.0357 36.9526C11.26 36.5386 11.3721 36.0487 11.3721 35.4829C11.3721 34.9171 11.26 34.441 11.0357 34.0546C10.8254 33.6544 10.5379 33.3508 10.1734 33.1438C9.82291 32.9368 9.42333 32.8333 8.97467 32.8333C8.52603 32.8333 8.11944 32.9368 7.75491 33.1438C7.40441 33.3508 7.11699 33.6544 6.89267 34.0546C6.68236 34.441 6.57721 34.9171 6.57721 35.4829C6.57721 36.0487 6.68236 36.5386 6.89267 36.9526C7.11699 37.3528 7.40441 37.6564 7.75491 37.8634C8.11944 38.0704 8.52603 38.1739 8.97467 38.1739Z" fill="#08921E"/>
<path d="M17.3245 41.1122C16.8281 41.1122 16.4258 40.7161 16.4258 40.2275V30.7774C16.4258 30.2888 16.8281 29.8928 17.3245 29.8928H19.5116C19.9096 29.8928 20.2323 30.2104 20.2323 30.6022V32.2075C20.2323 32.476 19.873 32.5739 19.7326 32.3437C19.6896 32.2732 19.682 32.1867 19.7148 32.1112C20.0543 31.3298 20.5844 30.7422 21.3048 30.3482C21.8429 30.0441 22.4623 29.8482 23.1632 29.7602C23.6556 29.6984 24.0598 30.1025 24.0598 30.5911V32.7679C24.0598 33.0194 23.8316 33.2048 23.5761 33.2048C23.4499 33.191 23.3097 33.1841 23.1555 33.1841C22.3423 33.1841 21.6834 33.4049 21.1786 33.8465C20.6739 34.2743 20.4216 34.9781 20.4216 35.9579V40.2275C20.4216 40.7161 20.0192 41.1122 19.5228 41.1122H17.3245Z" fill="#08921E"/>
<path d="M25.7662 41.1115C25.2698 41.1115 24.8674 40.7155 24.8674 40.2269V30.7768C24.8674 30.2882 25.2698 29.8922 25.7662 29.8922H27.9645C28.4608 29.8922 28.8632 30.2882 28.8632 30.7768V40.2269C28.8632 40.7155 28.4608 41.1115 27.9645 41.1115H25.7662ZM26.8653 28.6501C26.1363 28.6501 25.5474 28.4501 25.0988 28.0499C24.6501 27.6497 24.4258 27.1528 24.4258 26.5594C24.4258 25.966 24.6501 25.4693 25.0988 25.0691C25.5474 24.6689 26.1363 24.4688 26.8653 24.4688C27.5944 24.4688 28.1832 24.662 28.6319 25.0484C29.0805 25.421 29.3048 25.9039 29.3048 26.4973C29.3048 27.1183 29.0805 27.6359 28.6319 28.0499C28.1972 28.4501 27.6084 28.6501 26.8653 28.6501Z" fill="#08921E"/>
<path d="M35.5839 41.2996C34.5464 41.2996 33.6 41.065 32.7448 40.5958C31.9035 40.1128 31.2306 39.4435 30.7258 38.5879C30.2211 37.7185 29.9688 36.6835 29.9688 35.4829C29.9688 34.2961 30.2211 33.2749 30.7258 32.4193C31.2306 31.5499 31.9035 30.8806 32.7448 30.4114C33.6 29.9422 34.5464 29.7076 35.5839 29.7076C36.5653 29.7076 37.3925 29.9146 38.0654 30.3286C38.7524 30.7426 39.2712 31.3774 39.6217 32.233C39.9722 33.0886 40.1475 34.1719 40.1475 35.4829C40.1475 36.8215 39.9792 37.9186 39.6427 38.7742C39.3062 39.6298 38.8015 40.2646 38.1285 40.6786C37.4556 41.0926 36.6073 41.2996 35.5839 41.2996ZM36.4251 38.1739C36.8737 38.1739 37.2733 38.0704 37.6238 37.8634C37.9883 37.6564 38.2758 37.3528 38.4861 36.9526C38.6964 36.5386 38.8015 36.0487 38.8015 35.4829C38.8015 34.9171 38.6964 34.441 38.4861 34.0546C38.2758 33.6544 37.9883 33.3508 37.6238 33.1438C37.2733 32.9368 36.8737 32.8333 36.4251 32.8333C35.9624 32.8333 35.5488 32.9368 35.1843 33.1438C34.8338 33.3508 34.5534 33.6544 34.3431 34.0546C34.1328 34.441 34.0276 34.9171 34.0276 35.4829C34.0276 36.0487 34.1328 36.5386 34.3431 36.9526C34.5534 37.3528 34.8338 37.6564 35.1843 37.8634C35.5488 38.0704 35.9624 38.1739 36.4251 38.1739ZM39.8264 41.1133C39.3301 41.1133 38.9277 40.7173 38.9277 40.2287V39.1882L38.9487 35.4829L38.7384 31.7776V26.6385C38.7384 26.1499 39.1408 25.7539 39.6372 25.7539H41.8355C42.3317 25.7539 42.7342 26.1499 42.7342 26.6385V40.2287C42.7342 40.7173 42.3317 41.1133 41.8355 41.1133H39.8264Z" fill="#08921E"/>
<path d="M50.0381 45.3148C48.9445 45.3148 47.9 45.1906 46.9046 44.9422C46.2185 44.7686 45.6009 44.5376 45.0519 44.2493C44.6544 44.0406 44.5359 43.5511 44.7435 43.1574L45.3296 42.0452C45.59 41.5512 46.2485 41.4153 46.7609 41.6505C47.0196 41.7693 47.2988 41.873 47.5986 41.9614C48.3136 42.1822 49.0076 42.2926 49.6806 42.2926C50.7601 42.2926 51.5383 42.058 52.0149 41.5888C52.4916 41.1334 52.73 40.4641 52.73 39.5809V38.2561L52.9403 35.1097L52.9192 31.9426V30.7779C52.9192 30.2894 53.3216 29.8933 53.818 29.8933H55.827C56.3234 29.8933 56.7257 30.2894 56.7257 30.7779V39.0634C56.7257 41.1886 56.1439 42.7618 54.9802 43.783C53.8165 44.8042 52.1692 45.3148 50.0381 45.3148ZM49.3441 40.5331C48.3346 40.5331 47.4023 40.3123 46.547 39.8707C45.7058 39.4153 45.0258 38.7874 44.5071 37.987C44.0024 37.1728 43.75 36.2137 43.75 35.1097C43.75 34.0057 44.0024 33.0535 44.5071 32.2531C45.0258 31.4389 45.7058 30.811 46.547 30.3694C47.4023 29.9278 48.3346 29.707 49.3441 29.707C50.3115 29.707 51.1387 29.9002 51.8257 30.2866C52.5127 30.6592 53.0314 31.2457 53.3819 32.0461C53.7464 32.8465 53.9287 33.8677 53.9287 35.1097C53.9287 36.3517 53.7464 37.3729 53.3819 38.1733C53.0314 38.9737 52.5127 39.5671 51.8257 39.9535C51.1387 40.3399 50.3115 40.5331 49.3441 40.5331ZM50.2904 37.4074C50.7671 37.4074 51.1877 37.3108 51.5523 37.1176C51.9308 36.9244 52.2252 36.6553 52.4355 36.3103C52.6599 35.9653 52.772 35.5651 52.772 35.1097C52.772 34.6543 52.6599 34.2541 52.4355 33.9091C52.2252 33.5641 51.9308 33.3019 51.5523 33.1225C51.1877 32.9293 50.7671 32.8327 50.2904 32.8327C49.8138 32.8327 49.3861 32.9293 49.0076 33.1225C48.6291 33.3019 48.3276 33.5641 48.1033 33.9091C47.893 34.2541 47.7878 34.6543 47.7878 35.1097C47.7878 35.5651 47.893 35.9653 48.1033 36.3103C48.3276 36.6553 48.6291 36.9244 49.0076 37.1176C49.3861 37.3108 49.8138 37.4074 50.2904 37.4074Z" fill="#08921E"/>
<path d="M64.422 41.299C63.0761 41.299 61.8984 41.0506 60.8889 40.5538C59.8935 40.0432 59.1154 39.3532 58.5546 38.4838C58.0078 37.6006 57.7344 36.6001 57.7344 35.4823C57.7344 34.3645 58.0008 33.3709 58.5335 32.5015C59.0803 31.6183 59.8304 30.9352 60.7838 30.4522C61.7371 29.9554 62.8097 29.707 64.0014 29.707C65.123 29.707 66.1465 29.9347 67.0719 30.3901C67.9972 30.8317 68.7333 31.4872 69.2801 32.3566C69.8268 33.226 70.1002 34.2817 70.1002 35.5237C70.1002 35.6617 70.0932 35.8204 70.0792 35.9998C70.0572 36.2814 69.8175 36.4966 69.5306 36.4966H61.9138C61.4175 36.4966 61.0151 36.1006 61.0151 35.612V35.3112C61.0151 34.8227 61.4175 34.4266 61.9138 34.4266H66.6461C66.9091 34.4266 66.9773 34.7848 66.7322 34.8787C66.5739 34.9393 66.4036 34.8211 66.3899 34.6544C66.36 34.29 66.2648 33.9657 66.1045 33.6814C65.9082 33.3088 65.6278 33.019 65.2632 32.812C64.9127 32.605 64.4991 32.5015 64.0225 32.5015C63.5457 32.5015 63.1252 32.605 62.7606 32.812C62.4101 33.019 62.1367 33.3157 61.9405 33.7021C61.7442 34.0747 61.646 34.5163 61.646 35.0269V35.6272C61.646 36.1792 61.7581 36.6553 61.9825 37.0555C62.2208 37.4557 62.5573 37.7662 62.992 37.987C63.4265 38.194 63.9454 38.2975 64.5482 38.2975C65.109 38.2975 65.5857 38.2216 65.9783 38.0698C66.1504 37.9998 66.3213 37.9148 66.4909 37.815C66.8998 37.5744 67.435 37.5889 67.7652 37.9269L68.6983 38.8819C69.0258 39.2172 69.0382 39.7523 68.6689 40.0424C68.2538 40.3687 67.7845 40.6357 67.2611 40.8436C66.462 41.1472 65.5156 41.299 64.422 41.299Z" fill="#08921E"/>
<path fill-rule="evenodd" clip-rule="evenodd" d="M57.4893 20.252L57.4898 13.5073L58.6455 13.918C59.0164 14.0498 59.421 14.0579 59.797 13.941L62.792 13.0102L65.7182 13.9364C66.1063 14.0593 66.5255 14.0486 66.9067 13.9061L67.8831 13.541L67.8827 20.252H57.4893ZM54.793 21.1364C54.7929 22.1136 55.5976 22.9058 56.5904 22.9058H68.7813C69.7741 22.9058 70.5788 22.1137 70.5788 21.1367L70.5794 12.2588C70.5795 11.0202 69.3199 10.165 68.1437 10.6047L66.2437 11.3152L63.3449 10.3975C62.9901 10.2852 62.6086 10.2841 62.2533 10.3946L59.275 11.3202L57.2014 10.5833C56.0298 10.167 54.7936 11.0214 54.7936 12.2474L54.793 21.1364Z" fill="#FFAD05"/>
<path fill-rule="evenodd" clip-rule="evenodd" d="M62.6782 10.2431C62.6318 10.2407 62.5849 10.2325 62.5383 10.2179C61.7989 9.98494 61.1513 9.74123 60.589 9.47567C61.1744 9.74504 61.8423 9.99016 62.5963 10.2232C62.6235 10.2316 62.6509 10.2382 62.6782 10.2431ZM63.4372 9.75202C63.4401 9.73929 63.4427 9.72646 63.445 9.71337C63.8352 7.44011 63.6185 5.73581 62.7406 4.45736C62.2541 3.74892 61.5743 3.1856 60.7109 2.73081C60.995 2.20199 61.3617 1.64391 61.8103 1.04395C62.0048 0.783873 62.3872 0.748533 62.6252 0.970827C65.5951 3.74518 66.0773 6.27438 63.4372 9.75202ZM60.2053 2.97401C61.1635 3.42863 61.8797 3.99358 62.3683 4.70505C63.1544 5.84983 63.3829 7.42052 63.0019 9.63968C62.9809 9.76229 62.8543 9.83934 62.7309 9.80121C60.4971 9.11086 59.1454 8.34492 58.4202 7.24119C57.6964 6.1397 57.5635 4.65031 57.908 2.42421C57.9103 2.40884 57.9144 2.39417 57.9198 2.38033C58.0435 2.30457 58.1979 2.27716 58.3512 2.31893C59.0396 2.50647 59.6576 2.72245 60.2053 2.97401Z" fill="#79D630"/>
</g>
<defs>
<clipPath id="clip0_17869_4093">
<rect width="71" height="46" fill="white"/>
</clipPath>
</defs>
</svg>
