<svg width="48" height="17" viewBox="0 0 48 17" fill="none" xmlns="http://www.w3.org/2000/svg">
<g id="EUA">
<path d="M5.016 16.8007C4.088 16.8007 3.24 16.5767 2.472 16.1287C1.72 15.6807 1.12 15.0807 0.672 14.3287C0.224 13.5607 0 12.7127 0 11.7847C0 11.1127 0.144 10.4807 0.432 9.88871C0.72 9.29671 1.112 8.77671 1.608 8.32871C1.112 7.88071 0.72 7.36071 0.432 6.76871C0.144 6.17671 0 5.55272 0 4.89672C0 3.98472 0.216 3.16072 0.648 2.42472C1.096 1.68872 1.688 1.10471 2.424 0.672715C3.176 0.224715 4 0.000715093 4.896 0.000715093L13.8359 0.000428513V3.02443L5.28 3.02472C4.944 3.02472 4.632 3.11272 4.344 3.28872C4.072 3.44872 3.848 3.67272 3.672 3.96072C3.512 4.23272 3.432 4.54472 3.432 4.89672C3.432 5.23272 3.512 5.54472 3.672 5.83272C3.848 6.10472 4.072 6.32871 4.344 6.50471C4.632 6.66471 4.944 6.74471 5.28 6.74471H9.992C10.5443 6.74471 10.992 7.19243 10.992 7.74471V8.76871C10.992 9.321 10.5443 9.76871 9.992 9.76871H5.424C5.056 9.76871 4.72 9.86471 4.416 10.0567C4.112 10.2327 3.872 10.4727 3.696 10.7767C3.52 11.0807 3.432 11.4167 3.432 11.7847C3.432 12.1527 3.52 12.4887 3.696 12.7927C3.872 13.0967 4.112 13.3367 4.416 13.5127C4.72 13.6887 5.056 13.7767 5.424 13.7767H10.808C11.3603 13.7767 11.808 14.2244 11.808 14.7767V15.8007C11.808 16.353 11.3603 16.8007 10.808 16.8007H5.016Z" fill="black"/>
<path d="M13.8359 0.000428513V3.02443V10.1764C13.8359 14.205 16.4403 16.7997 20.54 16.8012C22.8354 16.802 24.5416 15.8009 24.5416 15.8009C24.5416 16.3532 24.9893 16.8008 25.5416 16.8007L29.7336 16.8L30.9118 13.392L27.8039 13.3924V10.1764V1.00043C27.8039 0.448144 27.3562 0.000428513 26.8039 0.000428513H25.3719C24.8196 0.000428513 24.3719 0.448144 24.3719 1.00043V10.3924C24.3719 13.1991 22.6066 13.8012 20.54 13.8012C18.5058 13.8012 17.2679 12.4101 17.2679 10.3924V1.00043C17.2679 0.448144 16.8202 0.000428513 16.2679 0.000428513H13.8359Z" fill="black"/>
<path fill-rule="evenodd" clip-rule="evenodd" d="M41.2698 0.000137656C41.6974 0.000140554 42.0778 0.272038 42.2161 0.676673L47.2756 15.4768C47.4974 16.1257 47.0151 16.8003 46.3293 16.8003L37.3942 16.8001C36.7213 16.8001 36.2405 16.149 36.4385 15.5059L36.8718 14.0982C37.001 13.6786 37.3886 13.3924 37.8275 13.3924L41.6564 13.3923C42.3379 13.3923 42.8197 12.7256 42.6059 12.0786L39.7668 3.48702C39.6315 3.07741 39.2487 2.80078 38.8173 2.80078H38.54L33.7381 16.1388C33.5952 16.5356 33.2189 16.8001 32.7972 16.8001L29.7336 16.8L30.9118 13.392L35.7941 0.642369C35.9422 0.255473 36.3136 -5.16139e-06 36.7279 -9.46744e-06C37.6867 -1.94334e-05 38.5089 2.37633e-05 39.3122 6.59661e-05C39.9566 9.98242e-05 40.5889 0.000133042 41.2698 0.000137656Z" fill="black"/>
</g>
</svg>
